# xmcd CD database file
#
# Track frame offsets:
#	183
#	17195
#	34670
#	48280
#	61205
#	78358
#	93465
#	105545
#	117003
#	130468
#	143498
#	157150
#	166703
#	178970
#	190050
#	206298
#	218578
#
# Disc length: 3081 seconds
#
# Revision: 0
# Processed by: cddbd v1.5PL3 Copyright (c) Steve Scherf et al.
# Submitted via: CDex 1.51
#
DISCID=de0c0711
DTITLE=Louis Armstron Band - Various titles
DYEAR=1944
DGENRE=Jazz
TTITLE0=T' Ain't Me
TTITLE1=Stardust
TTITLE2=Caldonia
TTITLE3=Easy as you go
TTITLE4=Baby, don't you cry
TTITLE5=Blues in the night
TTITLE6=Don't sweethaert me
TTITLE7=I couldn't sleep a wink last night
TTITLE8=A pretty girl is like a melody
TTITLE9=I'll be around
TTITLE10=I lost my sugar in Salt Lake City
TTITLE11=Louise
TTITLE12=Sweet and lovely
TTITLE13=Groovin'
TTITLE14=Back O'town blues
TTITLE15=Brother Bill
TTITLE16=Perdido
EXTD=YEAR: 1944
EXTT0=
EXTT1=
EXTT2=
EXTT3=
EXTT4=
EXTT5=
EXTT6=
EXTT7=
EXTT8=
EXTT9=
EXTT10=
EXTT11=
EXTT12=
EXTT13=
EXTT14=
EXTT15=
EXTT16=
PLAYORDER=
